<?xml version="1.0" encoding="UTF-8" standalone="no"?>
<!-- Created with Inkscape (http://www.inkscape.org/) -->

<svg
   width="200mm"
   height="200mm"
   viewBox="0 0 200 200"
   version="1.1"
   id="svg5"
   inkscape:version="1.1 (c68e22c387, 2021-05-23)"
   sodipodi:docname="icon.svg"
   xmlns:inkscape="http://www.inkscape.org/namespaces/inkscape"
   xmlns:sodipodi="http://sodipodi.sourceforge.net/DTD/sodipodi-0.dtd"
   xmlns="http://www.w3.org/2000/svg"
   xmlns:svg="http://www.w3.org/2000/svg">
  <sodipodi:namedview
     id="namedview7"
     pagecolor="#ffffff"
     bordercolor="#666666"
     borderopacity="1.0"
     inkscape:pageshadow="2"
     inkscape:pageopacity="0.0"
     inkscape:pagecheckerboard="0"
     inkscape:document-units="mm"
     showgrid="false"
     inkscape:zoom="0.73228114"
     inkscape:cx="120.17242"
     inkscape:cy="462.93695"
     inkscape:window-width="1920"
     inkscape:window-height="1002"
     inkscape:window-x="-8"
     inkscape:window-y="-8"
     inkscape:window-maximized="1"
     inkscape:current-layer="layer1"
     width="200mm"
     showguides="false" />
  <defs
     id="defs2">
    <inkscape:path-effect
       effect="bspline"
       id="path-effect295"
       is_visible="true"
       lpeversion="1"
       weight="33.333333"
       steps="2"
       helper_size="0"
       apply_no_weight="true"
       apply_with_weight="true"
       only_selected="false" />
    <inkscape:path-effect
       effect="bspline"
       id="path-effect54"
       is_visible="true"
       lpeversion="1"
       weight="33.333333"
       steps="2"
       helper_size="0"
       apply_no_weight="true"
       apply_with_weight="true"
       only_selected="false" />
  </defs>
  <g
     inkscape:label="Ebene 1"
     inkscape:groupmode="layer"
     id="layer1">
    <path
       style="fill:#d40000;stroke:none;stroke-width:0.264583px;stroke-linecap:butt;stroke-linejoin:miter;stroke-opacity:1"
       d="m 70.937934,29.326837 c -0.120405,13.308477 0.963537,37.155188 -3.131476,56.304866 -4.095012,19.149677 -13.368546,33.601937 -23.184281,43.839167 -9.815735,10.23723 -20.173189,16.25901 -25.833848,21.07668 -5.660659,4.81767 -6.624145,8.43074 -6.443364,11.44177 0.18078,3.01104 1.505575,5.41976 4.637014,5.96153 3.131438,0.54178 8.069297,-0.78301 16.981777,-5.60061 8.912479,-4.8176 21.79908,-13.12765 31.915888,-23.06384 10.116808,-9.9362 17.463376,-21.49801 21.257194,-37.75725 3.793819,-16.259235 4.03469,-37.215021 3.310048,-52.220479 C 89.722243,34.303214 88.040201,25.292274 86.474547,19.390793 84.908894,13.489312 83.463667,10.719296 81.355977,9.7556159 79.248287,8.7919362 76.478325,9.6349683 74.430728,11.441655 72.38313,13.248343 71.058339,16.01836 70.937934,29.326837 Z"
       id="path52"
       inkscape:path-effect="#path-effect54"
       inkscape:original-d="m 69.733574,18.788321 c 1.084207,23.846982 2.168149,47.693693 3.251826,71.540144 -9.273643,14.453115 -18.54718,28.905375 -27.821167,43.357665 -10.357607,6.02229 -20.715065,12.04406 -31.072993,18.0657 -0.963258,3.61347 -1.926742,7.22654 -2.890511,10.83941 1.325109,2.40907 2.6499,4.81779 3.974453,7.22628 4.938319,-1.32458 9.876178,-2.64937 14.813869,-3.97445 C 42.876434,157.53295 55.763036,149.2229 68.649634,140.91241 75.996761,129.3504 83.34333,117.78859 90.689779,106.22628 90.930926,85.269918 91.171795,64.314132 91.412407,43.357664 89.606067,34.3249 88.040409,25.292235 86.354013,16.259124 84.908994,13.48926 83.463768,10.719243 82.018246,7.948905 c -2.769863,0.8433471 -5.539825,1.6863792 -8.310217,2.529197 -1.32458,2.770393 -2.649372,5.54041 -3.974455,8.310219 z"
       sodipodi:nodetypes="cccccccccccccc" />
    <path
       style="fill:#008080;stroke:none;stroke-width:0.264583px;stroke-linecap:butt;stroke-linejoin:miter;stroke-opacity:1"
       d="m 99.073482,164.22428 c 2.826138,-11.5964 8.478338,-34.78893 17.783128,-52.01972 9.30479,-17.230782 22.26165,-28.499596 34.55597,-35.570609 12.29433,-7.071013 23.92553,-9.943954 30.71076,-12.979338 6.78524,-3.035383 8.72401,-6.232839 9.39554,-9.1736 0.67154,-2.940762 0.076,-5.624477 -2.77754,-7.023315 -2.85354,-1.398838 -7.96475,-1.513101 -17.87111,0.609594 -9.90635,2.122695 -24.60725,6.48214 -37.10606,13.179718 -12.49882,6.697579 -22.79494,15.732906 -30.99944,30.273953 -8.204499,14.541047 -14.316929,34.587017 -17.832692,49.192777 -3.515763,14.60577 -4.430243,23.72663 -4.583763,29.83033 -0.153519,6.1037 0.456219,9.16799 2.208745,10.68446 1.752526,1.51647 4.647768,1.48471 7.120116,0.32529 2.472347,-1.15942 4.521304,-3.44631 5.545757,-4.58973 1.024453,-1.14342 1.024453,-1.14341 3.850589,-12.73981 z"
       id="path52-7"
       inkscape:path-effect="#path-effect295"
       inkscape:original-d="m 96.247346,175.82068 c 5.652024,-23.19286 11.304224,-46.38539 16.956614,-69.57758 12.9572,-11.269599 25.91406,-22.538408 38.87135,-33.807122 11.63151,-2.87339 23.26271,-5.746326 34.89433,-8.619006 1.93867,-3.197907 3.87743,-6.395368 5.81642,-9.592555 -0.59575,-2.684142 -1.19129,-5.367858 -1.78666,-8.051286 -5.11159,-0.114594 -10.2228,-0.228857 -15.33393,-0.342794 -14.7017,4.359291 -29.4026,8.718739 -44.10363,13.078609 -10.29673,9.035364 -20.59285,18.070696 -30.88901,27.106539 -6.112864,20.046445 -12.225289,40.092415 -18.33766,60.139125 -0.801299,9.17669 -1.833581,18.28574 -2.750108,27.42909 0.609584,3.06409 1.219325,6.12838 1.829254,9.19307 2.895226,-0.0321 5.790468,-0.0639 8.686054,-0.0953 2.048855,-2.2873 4.097806,-4.5742 6.146976,-6.8608 z"
       sodipodi:nodetypes="cccccccccccccc" />
  </g>
</svg>
